Coordinates
nRows=6
nColumns=34

# SIMM Motion File Header:
name Coordinates
datacolumns 34
datarows 6
otherdata 1
range 0.45000000 0.45500000

Units are S.I. units (second, meters, Newtons, ...)
Angles are in degrees.

endheader
time	pelvis_tz	pelvis_tx	pelvis_ty	pelvis_tilt	pelvis_list	pelvis_rotation	hip_flexion_r	hip_adduction_r	hip_rotation_r	knee_r_tx	knee_r_ty	knee_angle_r	tib_pat_r_tx	tib_pat_r_ty	tib_pat_r_r1	ankle_angle_r	subtalar_angle_r	mtp_angle_r	hip_flexion_l	hip_adduction_l	hip_rotation_l	knee_l_tx	knee_l_ty	knee_angle_l	tib_pat_l_tx	tib_pat_l_ty	tib_pat_l_r1	ankle_angle_l	subtalar_angle_l	mtp_angle_l	lumbar_extension	lumbar_bending	lumbar_rotation
      0.45000000	     -0.24942652	      0.28537140	      0.91283429	     -1.26579667	     -0.34648427	     -2.40251078	     -8.76499176	      2.68197203	     16.66232411	     -0.00417700	     -0.41345567	     -4.32224472	      0.04611737	     -0.02113799	      4.62826825	     16.17969321	     -0.00000000	     -0.00000000	     24.19136716	     -1.62661922	     -6.95802896	     -0.00154543	     -0.41471514	    -17.72210313	      0.04419852	     -0.02056524	     12.90183163	      3.30940183	      0.00000000	      0.00000000	     -4.96962983	      4.52978330	      2.78008124
      0.45100000	     -0.24953188	      0.28632643	      0.91260908	     -1.25763259	     -0.39320227	     -2.40734963	     -8.82710232	      2.72796721	     16.68348491	     -0.00417188	     -0.41345863	     -4.35914495	      0.04611297	     -0.02113649	      4.66334319	     16.24085789	     -0.00000000	     -0.00000000	     24.17770136	     -1.64218832	     -6.90880502	     -0.00161828	     -0.41467883	    -17.39922507	      0.04424290	     -0.02057610	     12.78840474	      3.26618801	      0.00000000	      0.00000000	     -4.99849360	      4.59547509	      2.77649348
      0.45200000	     -0.24963621	      0.28728267	      0.91238386	     -1.24932031	     -0.43947037	     -2.41257884	     -8.88902831	      2.77355841	     16.70483826	     -0.00416663	     -0.41346166	     -4.39684749	      0.04610846	     -0.02113494	      4.69909748	     16.30186779	     -0.00000000	     -0.00000000	     24.16346028	     -1.65765359	     -6.85989864	     -0.00169095	     -0.41464314	    -17.07820618	      0.04428683	     -0.02058693	     12.67234939	      3.22242397	      0.00000000	      0.00000000	     -5.02746698	      4.66041570	      2.77322290
      0.45300000	     -0.24973945	      0.28824014	      0.91215865	     -1.24086257	     -0.48527042	     -2.41820028	     -8.95076562	      2.81872773	     16.72637208	     -0.00416126	     -0.41346475	     -4.43535361	      0.04610382	     -0.02113336	      4.73552709	     16.36272265	     -0.00000000	     -0.00000000	     24.14865979	     -1.67300747	     -6.81133608	     -0.00176338	     -0.41460806	    -16.75912221	      0.04433034	     -0.02059775	     12.55368195	      3.17811664	      0.00000000	      0.00000000	     -5.05654355	      4.72457814	      2.77027634
      0.45400000	     -0.24984159	      0.28919885	      0.91193349	     -1.23226222	     -0.53058444	     -2.42421559	     -9.01231018	      2.86345739	     16.74807424	     -0.00415577	     -0.41346791	     -4.47466416	      0.04609906	     -0.02113173	      4.77262742	     16.42342250	     -0.00000000	     -0.00000000	     24.13331606	     -1.68824223	     -6.76314320	     -0.00183547	     -0.41457358	    -16.44204883	      0.04437347	     -0.02060855	     12.43242405	      3.13327292	      0.00000000	      0.00000000	     -5.08571668	      4.78793572	      2.76766051
      0.45500000	     -0.24994258	      0.29015881	      0.91170840	     -1.22352232	     -0.57539463	     -2.43062609	     -9.07365797	      2.90772983	     16.76993255	     -0.00415015	     -0.41347113	     -4.51477967	      0.04609417	     -0.02113006	      4.81039354	     16.48396772	     -0.00000000	     -0.00000000	     24.11744554	     -1.70335000	     -6.71534547	     -0.00190715	     -0.41453969	    -16.12706155	      0.04441624	     -0.02061936	     12.30860262	      3.08789967	      0.00000000	      0.00000000	     -5.11497948	      4.85046207	      2.76538201
